<?xml version="1.0" encoding="UTF-8" standalone="no"?>
<!-- Created with Inkscape (http://www.inkscape.org/) -->

<svg
   xmlns:dc="http://purl.org/dc/elements/1.1/"
   xmlns:cc="http://creativecommons.org/ns#"
   xmlns:rdf="http://www.w3.org/1999/02/22-rdf-syntax-ns#"
   xmlns:svg="http://www.w3.org/2000/svg"
   xmlns="http://www.w3.org/2000/svg"
   xmlns:sodipodi="http://sodipodi.sourceforge.net/DTD/sodipodi-0.dtd"
   xmlns:inkscape="http://www.inkscape.org/namespaces/inkscape"
   width="800"
   height="350"
   viewBox="0 0 800 350"
   id="svg20009"
   version="1.1"
   inkscape:version="0.91 r13725"
   sodipodi:docname="DMX_logotype_black.svg">
  <defs
     id="defs20011" />
  <sodipodi:namedview
     id="base"
     pagecolor="#ffffff"
     bordercolor="#666666"
     borderopacity="1.0"
     inkscape:pageopacity="0.0"
     inkscape:pageshadow="2"
     inkscape:zoom="0.62480469"
     inkscape:cx="403.47122"
     inkscape:cy="-195.93111"
     inkscape:document-units="px"
     inkscape:current-layer="layer1"
     showgrid="false"
     units="px"
     inkscape:window-width="1920"
     inkscape:window-height="1025"
     inkscape:window-x="0"
     inkscape:window-y="24"
     inkscape:window-maximized="1" />
  <metadata
     id="metadata20014">
    <rdf:RDF>
      <cc:Work
         rdf:about="">
        <dc:format>image/svg+xml</dc:format>
        <dc:type
           rdf:resource="http://purl.org/dc/dcmitype/StillImage" />
        <dc:title></dc:title>
      </cc:Work>
    </rdf:RDF>
  </metadata>
  <g
     inkscape:label="Layer 1"
     inkscape:groupmode="layer"
     id="layer1"
     transform="translate(0,-702.36216)">
    <g
       transform="matrix(1.0229093,0,0,0.97760378,-54.505373,-466.29103)"
       style="font-style:normal;font-variant:normal;font-weight:bold;font-stretch:normal;font-size:457.23968506px;line-height:125%;font-family:Montserrat;-inkscape-font-specification:'Montserrat Bold';text-align:start;writing-mode:lr-tb;text-anchor:start;opacity:1;fill:#000000;fill-opacity:1;stroke:none;stroke-width:4;stroke-linecap:round;stroke-miterlimit:4;stroke-dasharray:none;stroke-dashoffset:0;stroke-opacity:1"
       id="text4136-3-31-4-1-3-0-4-8-7-4-6-5-7-2-9-5-6-9-7-38-97-9-0-2-9">
      <path
         d="m 218.52232,1486.1328 q -8.9358,13.1409 -21.20061,19.9741 -12.08961,6.8333 -27.68345,6.8333 -35.04234,0 -54.49084,-25.5809 -19.273288,-25.5809 -19.273288,-67.6317 l 0,-3.6795 q 0,-44.8542 19.448498,-72.3624 19.4485,-27.5082 54.66605,-27.5082 14.19215,0 25.58091,6.3076 11.38876,6.1324 19.97413,17.5211 l 0,-67.9821 -27.33302,-5.2563 0,-30.8373 27.33302,0 51.16182,0 0,237.4118 24.52964,5.2564 0,30.662 -68.8582,0 -3.85466,-23.1279 z m -71.48637,-66.4052 q 0,24.88 8.23495,39.2474 8.41016,14.1921 27.33302,14.1921 11.21355,0 19.4485,-4.5555 8.23495,-4.5555 13.4913,-13.1408 l 0,-80.4222 q -5.25635,-9.111 -13.4913,-14.017 -8.05974,-5.0811 -19.09807,-5.0811 -18.74766,0 -27.33303,16.6451 -8.58537,16.6451 -8.58537,43.4525 l 0,3.6795 z"
         style="font-style:normal;font-variant:normal;font-weight:bold;font-stretch:normal;font-size:358.83355713px;font-family:'Roboto Slab';-inkscape-font-specification:'Roboto Slab Bold';letter-spacing:0px;fill:hsl(210, 50%, 53%)"
         id="path20566"
         inkscape:connector-curvature="0" />
      <path
         d="m 286.15771,1350.5189 0,-30.8372 74.81539,0 2.10254,25.0553 q 9.11101,-13.6666 22.77752,-21.0254 13.84173,-7.5341 31.88853,-7.5341 18.22202,0 31.18769,8.0597 12.96566,8.0597 19.62371,24.3544 8.76058,-15.2434 22.77752,-23.8288 14.01693,-8.5853 32.9398,-8.5853 28.03387,0 44.15334,19.4484 16.29469,19.2733 16.29469,58.8712 l 0,78.8452 24.70485,5.2564 0,30.662 -97.94334,0 0,-30.662 22.07668,-5.2564 0,-79.0204 q 0,-21.5511 -7.00847,-29.9612 -7.00847,-8.4102 -20.85019,-8.4102 -10.86313,0 -18.92287,4.9059 -7.88452,4.7307 -12.61524,13.3161 0,3.329 0.17521,5.782 0.17521,2.2778 0.17521,4.7307 l 0,88.6571 20.67498,5.2564 0,30.662 -92.33656,0 0,-30.662 20.67498,-5.2564 0,-79.0204 q 0,-21.0254 -7.00847,-29.6108 -7.00847,-8.7606 -21.0254,-8.7606 -10.33749,0 -18.22202,4.0299 -7.70931,3.8546 -12.79045,11.0383 l 0,102.3236 22.07667,5.2564 0,30.662 -97.76813,0 0,-30.662 24.70485,-5.2564 0,-117.567 -27.33302,-5.2564 z"
         style="font-style:normal;font-variant:normal;font-weight:bold;font-stretch:normal;font-size:358.83355713px;font-family:'Roboto Slab';-inkscape-font-specification:'Roboto Slab Bold';letter-spacing:0px;fill:hsl(210, 50%, 53%)"
         id="path20568"
         inkscape:connector-curvature="0" />
      <path
         d="m 594.78899,1478.5987 17.69639,-2.8034 51.51224,-62.3754 -49.76013,-59.9224 -17.69638,-2.9786 0,-30.8372 85.3281,0 0,29.6108 -17.34596,2.1025 28.73472,36.444 28.20908,-36.444 -17.69638,-2.1025 0,-29.6108 85.67852,0 0,30.8372 -17.17075,2.9786 -48.70885,59.9224 51.33703,62.3754 17.87159,2.8034 0,30.662 -86.72979,0 0,-29.4355 17.34596,-2.1026 -29.43556,-38.1961 -29.9612,38.3713 15.24341,1.9274 0,29.4355 -84.45204,0 0,-30.662 z"
         style="font-style:normal;font-variant:normal;font-weight:bold;font-stretch:normal;font-size:358.83355713px;font-family:'Roboto Slab';-inkscape-font-specification:'Roboto Slab Bold';letter-spacing:0px;fill:hsl(210, 50%, 53%)"
         id="path20570"
         inkscape:connector-curvature="0" />
    </g>
  </g>
</svg>
